<svg width="70" height="70" viewBox="0 0 70 70" fill="none" xmlns="http://www.w3.org/2000/svg">
<g clip-path="url(#clip0_39_108)">
<path d="M39.025 10.2024C38.2375 10.2024 37.5346 10.7566 37.3742 11.5586L28.7292 55.3757C28.6449 55.8129 28.7363 56.2657 28.9836 56.6358C29.231 57.006 29.6143 57.2638 30.0504 57.3532L41.9942 59.7624C42.4339 59.85 42.8904 59.7594 43.2634 59.5105C43.6364 59.2617 43.8953 58.875 43.9833 58.4353L52.6254 14.6241C52.7097 14.1869 52.6183 13.7341 52.371 13.3639C52.1236 12.9938 51.7403 12.736 51.3042 12.6466L39.3575 10.2374C39.249 10.2153 39.1357 10.2036 39.025 10.2024ZM21.8867 10.4882C21.5747 10.489 21.269 10.5761 21.0034 10.7397C20.7378 10.9034 20.5226 11.1374 20.3817 11.4157L0.180847 51.6161C0.0810712 51.8133 0.0212363 52.0282 0.00478001 52.2485C-0.0116763 52.4689 0.0155704 52.6903 0.0849546 52.9001C0.154339 53.1099 0.264492 53.3039 0.409086 53.4709C0.55368 53.638 0.729864 53.7749 0.927513 53.8736L11.8154 59.3482C12.2153 59.5463 12.6772 59.5783 13.1006 59.4374C13.5239 59.2964 13.8745 58.9939 14.0758 58.5957L34.2767 18.4011C34.3766 18.2036 34.4365 17.9882 34.453 17.7674C34.4696 17.5467 34.4424 17.3248 34.373 17.1145C34.3037 16.9043 34.1935 16.7098 34.0488 16.5422C33.9042 16.3746 33.7279 16.2372 33.53 16.1378L22.6392 10.6691C22.405 10.5534 22.1479 10.4916 21.8867 10.4882ZM56.1283 10.8236C55.6828 10.8236 55.2555 11.0006 54.9404 11.3157C54.6253 11.6308 54.4483 12.0581 54.4483 12.5036V57.4961C54.4483 58.4236 55.2008 59.182 56.1283 59.182H68.3142C68.7608 59.1804 69.1887 59.0023 69.5045 58.6865C69.8204 58.3707 69.9985 57.9428 70 57.4961V12.5036C69.9969 12.058 69.8182 11.6316 69.5025 11.317C69.1868 11.0025 68.7598 10.8252 68.3142 10.8236H56.1283Z" fill="black"/>
</g>
<defs>
<clipPath id="clip0_39_108">
<rect width="70" height="70" fill="white"/>
</clipPath>
</defs>
</svg>
