<svg width="70" height="70" viewBox="0 0 70 70" fill="none" xmlns="http://www.w3.org/2000/svg">
<path fill-rule="evenodd" clip-rule="evenodd" d="M38.225 55.8874C38.225 57.0679 39.182 58.0249 40.3625 58.0249C41.543 58.0249 42.5 57.0679 42.5 55.8874C42.5 54.7069 41.543 53.7499 40.3625 53.7499C39.182 53.7499 38.225 54.7069 38.225 55.8874ZM27.5 14.1124C27.5 15.2929 28.457 16.2499 29.6375 16.2499C30.818 16.2499 31.775 15.2929 31.775 14.1124C31.775 12.9319 30.818 11.9749 29.6375 11.9749C28.457 11.9749 27.5 12.9319 27.5 14.1124Z" fill="#2E2925"/>
<path fill-rule="evenodd" clip-rule="evenodd" d="M58.2143 18.9285H51.0715V11.7857C51.0715 8.04283 48.0286 5 44.2858 5H25.7143C21.9715 5 18.9285 8.04283 18.9285 11.7857V18.9285H11.7857C8.04283 18.9285 5 21.9715 5 25.7143V44.2858C5 48.0286 8.04283 51.0715 11.7857 51.0715H18.9285V58.2143C18.9285 61.9572 21.9715 65 25.7143 65H44.2858C48.0286 65 51.0715 61.9572 51.0715 58.2143V51.0715H58.2143C61.9572 51.0715 65 48.0286 65 44.2858V25.7143C65 21.9715 61.9572 18.9285 58.2143 18.9285ZM11.7857 46.7857C10.4072 46.7857 9.28573 45.6643 9.28573 44.2858V25.7143C9.28573 24.3358 10.4071 23.2143 11.7857 23.2143H32.6786C33.8644 23.2143 34.8214 22.2571 34.8214 21.0715C34.8214 19.8858 33.8643 18.9285 32.6786 18.9285H23.2144V11.7857C23.2144 10.4072 24.3358 9.28573 25.7143 9.28573H44.2858C45.6643 9.28573 46.7857 10.4071 46.7857 11.7857V31.0214C46.7857 32.0357 45.9643 32.8572 44.95 32.8572H25.05C21.6715 32.8572 18.9285 35.6071 18.9285 38.9786V46.7857H11.7857ZM60.7143 44.2858C60.7143 45.6643 59.5929 46.7857 58.2143 46.7857H37.3214C36.1357 46.7857 35.1786 47.7429 35.1786 48.9286C35.1786 50.1142 36.1357 51.0715 37.3214 51.0715H46.7857V58.2143C46.7857 59.5928 45.6643 60.7143 44.2858 60.7143H25.7143C24.3358 60.7143 23.2143 59.5929 23.2143 58.2143V38.9786C23.2143 37.9643 24.0358 37.1428 25.05 37.1428H44.95C48.3286 37.1428 51.0715 34.3929 51.0715 31.0214V23.2143H58.2143C59.5928 23.2143 60.7143 24.3358 60.7143 25.7143V44.2858Z" fill="#2E2925"/>
</svg>
