<svg width="70" height="70" viewBox="0 0 70 70" fill="none" xmlns="http://www.w3.org/2000/svg">
<path d="M17.5 14.5833C18.2736 14.5833 19.0155 14.8905 19.5624 15.4375C20.1094 15.9845 20.4167 16.7264 20.4167 17.4999C20.4167 18.2735 20.1094 19.0153 19.5624 19.5623C19.0155 20.1093 18.2736 20.4166 17.5 20.4166C16.7265 20.4166 15.9846 20.1093 15.4376 19.5623C14.8907 19.0153 14.5834 18.2735 14.5834 17.4999C14.5834 16.7264 14.8907 15.9845 15.4376 15.4375C15.9846 14.8905 16.7265 14.5833 17.5 14.5833ZM17.5 32.0833C18.2736 32.0833 19.0155 32.3905 19.5624 32.9375C20.1094 33.4845 20.4167 34.2264 20.4167 34.9999C20.4167 35.7735 20.1094 36.5153 19.5624 37.0623C19.0155 37.6093 18.2736 37.9166 17.5 37.9166C16.7265 37.9166 15.9846 37.6093 15.4376 37.0623C14.8907 36.5153 14.5834 35.7735 14.5834 34.9999C14.5834 34.2264 14.8907 33.4845 15.4376 32.9375C15.9846 32.3905 16.7265 32.0833 17.5 32.0833ZM17.5 49.5833C18.2736 49.5833 19.0155 49.8905 19.5624 50.4375C20.1094 50.9845 20.4167 51.7264 20.4167 52.4999C20.4167 53.2735 20.1094 54.0153 19.5624 54.5623C19.0155 55.1093 18.2736 55.4166 17.5 55.4166C16.7265 55.4166 15.9846 55.1093 15.4376 54.5623C14.8907 54.0153 14.5834 53.2735 14.5834 52.4999C14.5834 51.7264 14.8907 50.9845 15.4376 50.4375C15.9846 49.8905 16.7265 49.5833 17.5 49.5833ZM52.5 14.5833C53.2736 14.5833 54.0155 14.8905 54.5624 15.4375C55.1094 15.9845 55.4167 16.7264 55.4167 17.4999C55.4167 18.2735 55.1094 19.0153 54.5624 19.5623C54.0155 20.1093 53.2736 20.4166 52.5 20.4166C51.7265 20.4166 50.9846 20.1093 50.4376 19.5623C49.8907 19.0153 49.5834 18.2735 49.5834 17.4999C49.5834 16.7264 49.8907 15.9845 50.4376 15.4375C50.9846 14.8905 51.7265 14.5833 52.5 14.5833ZM52.5 32.0833C53.2736 32.0833 54.0155 32.3905 54.5624 32.9375C55.1094 33.4845 55.4167 34.2264 55.4167 34.9999C55.4167 35.7735 55.1094 36.5153 54.5624 37.0623C54.0155 37.6093 53.2736 37.9166 52.5 37.9166C51.7265 37.9166 50.9846 37.6093 50.4376 37.0623C49.8907 36.5153 49.5834 35.7735 49.5834 34.9999C49.5834 34.2264 49.8907 33.4845 50.4376 32.9375C50.9846 32.3905 51.7265 32.0833 52.5 32.0833ZM35 32.0833C35.7736 32.0833 36.5155 32.3905 37.0624 32.9375C37.6094 33.4845 37.9167 34.2264 37.9167 34.9999C37.9167 35.7735 37.6094 36.5153 37.0624 37.0623C36.5155 37.6093 35.7736 37.9166 35 37.9166C34.2265 37.9166 33.4846 37.6093 32.9376 37.0623C32.3907 36.5153 32.0834 35.7735 32.0834 34.9999C32.0834 34.2264 32.3907 33.4845 32.9376 32.9375C33.4846 32.3905 34.2265 32.0833 35 32.0833ZM35 14.5833C35.7736 14.5833 36.5155 14.8905 37.0624 15.4375C37.6094 15.9845 37.9167 16.7264 37.9167 17.4999C37.9167 18.2735 37.6094 19.0153 37.0624 19.5623C36.5155 20.1093 35.7736 20.4166 35 20.4166C34.2265 20.4166 33.4846 20.1093 32.9376 19.5623C32.3907 19.0153 32.0834 18.2735 32.0834 17.4999C32.0834 16.7264 32.3907 15.9845 32.9376 15.4375C33.4846 14.8905 34.2265 14.5833 35 14.5833ZM52.5 49.5833C53.2736 49.5833 54.0155 49.8905 54.5624 50.4375C55.1094 50.9845 55.4167 51.7264 55.4167 52.4999C55.4167 53.2735 55.1094 54.0153 54.5624 54.5623C54.0155 55.1093 53.2736 55.4166 52.5 55.4166C51.7265 55.4166 50.9846 55.1093 50.4376 54.5623C49.8907 54.0153 49.5834 53.2735 49.5834 52.4999C49.5834 51.7264 49.8907 50.9845 50.4376 50.4375C50.9846 49.8905 51.7265 49.5833 52.5 49.5833ZM35 49.5833C35.7736 49.5833 36.5155 49.8905 37.0624 50.4375C37.6094 50.9845 37.9167 51.7264 37.9167 52.4999C37.9167 53.2735 37.6094 54.0153 37.0624 54.5623C36.5155 55.1093 35.7736 55.4166 35 55.4166C34.2265 55.4166 33.4846 55.1093 32.9376 54.5623C32.3907 54.0153 32.0834 53.2735 32.0834 52.4999C32.0834 51.7264 32.3907 50.9845 32.9376 50.4375C33.4846 49.8905 34.2265 49.5833 35 49.5833Z" stroke="#2E2925" stroke-width="1.5" stroke-linecap="round" stroke-linejoin="round"/>
</svg>
